<?xml version="1.0" encoding="UTF-8"?>
<svg width="62px" height="49px" viewBox="0 0 62 49" version="1.1" xmlns="http://www.w3.org/2000/svg" xmlns:xlink="http://www.w3.org/1999/xlink">
    <title>Group</title>
    <defs>
        <linearGradient x1="100%" y1="50%" x2="6.40749388e-07%" y2="50%" id="linearGradient-1">
            <stop stop-color="#F58F23" offset="0%"></stop>
            <stop stop-color="#F04635" offset="100%"></stop>
        </linearGradient>
    </defs>
    <g id="Page-1" stroke="none" stroke-width="1" fill="none" fill-rule="evenodd">
        <g id="Group">
            <g id="Union" fill="url(#linearGradient-1)">
                <path d="M8.9,0 C6.69086,0 4.9,1.79086 4.9,4 L4.9,10.4125 L20.2125,10.4125 L20.2125,4 C20.2125,1.79086 18.4216,0 16.2125,0 L8.9,0 Z M4,12.25 C1.79086,12.25 0,14.0409 0,16.25 L0,45 C0,47.2091 1.79086,49 4,49 L57.25,49 C59.4591,49 61.25,47.2091 61.25,45 L61.25,16.25 C61.25,14.0409 59.4591,12.25 57.25,12.25 L4,12.25 Z M22.6625,4 C22.6625,1.79086 24.4534,0 26.6625,0 L33.975,0 C36.1841,0 37.975,1.79086 37.975,4 L37.975,10.4125 L22.6625,10.4125 L22.6625,4 Z M44.425,0 C42.2159,0 40.425,1.79086 40.425,4 L40.425,10.4125 L55.7375,10.4125 L55.7375,4 C55.7375,1.79086 53.9466,0 51.7375,0 L44.425,0 Z" id="Shape"></path>
            </g>
            <g id="Flame" transform="translate(18.000000, 16.000000)" fill="#FFFFFF" fill-rule="nonzero">
                <path d="M21.4774855,8.83082707 C21.4774855,8.83082707 25.5874254,14.9906015 20.4911,17.9887218 C20.0527064,18.2612782 19.5595136,18.4793233 18.9567224,18.6973684 L18.9019232,18.6973684 L19.0115216,18.5883459 C19.0115216,18.5883459 19.0115216,18.5883459 19.0115216,18.5338346 C19.0663208,17.7161654 19.12112,16.8984962 19.0663208,16.1353383 C18.5183288,3.37969925 10.846441,0 10.846441,0 C14.7371841,11.2838346 6.90089865,15.5902256 6.90089865,15.5902256 C5.03772589,16.7349624 7.77768583,5.01503759 7.77768583,5.01503759 C-5.70291708,17.3890977 1.25658117,25.1296992 6.95569784,28.3458647 L7.01049704,28.2368421 C7.33929224,26.3289474 8.27087862,24.093985 9.69565779,21.9135338 C10.6820434,20.4417293 11.7780273,19.2424812 12.8740113,18.2612782 L12.9288105,18.2067669 C12.9288105,18.2067669 12.9288105,18.2067669 12.9288105,18.2067669 C13.2576057,20.2781955 12.7644129,26.0018797 16.2715616,29 C16.2715616,29 16.5455576,28.8909774 16.929152,28.6729323 C20.2719032,26.8740602 34.7936908,18.1522556 21.4774855,8.83082707 Z" id="Path"></path>
            </g>
        </g>
    </g>
</svg>