<svg width="12" height="21" viewBox="0 0 12 21" fill="none" xmlns="http://www.w3.org/2000/svg">
<path d="M10.8736 9.79954C10.9531 9.67038 10.9966 9.52236 10.9998 9.37075C11.003 9.21914 10.9657 9.06942 10.8917 8.93704C10.8178 8.80466 10.7098 8.6944 10.5791 8.61763C10.4483 8.54086 10.2994 8.50037 10.1477 8.50032H7.25013V1L1.12653 10.9521C1.04701 11.0812 1.0034 11.2292 1.00019 11.3808C0.996983 11.5323 1.0343 11.682 1.10829 11.8144C1.18227 11.9467 1.29025 12.0569 1.42106 12.1336C1.55187 12.2102 1.70078 12.2506 1.8524 12.2505H4.75002V19.7508L10.8736 9.79954Z" stroke="white" stroke-width="1.5" stroke-linecap="round" stroke-linejoin="round"/>
</svg>
