<?xml version="1.0" encoding="UTF-8"?>
<svg width="17px" height="16px" viewBox="0 0 17 16" version="1.1" xmlns="http://www.w3.org/2000/svg" xmlns:xlink="http://www.w3.org/1999/xlink">
    <title></title>
    <g id="Page-1" stroke="none" stroke-width="1" fill="none" fill-rule="evenodd">
        <path d="M15.4669679,15.8749955 C16.5469729,15.8749955 17.2257776,14.7033236 16.6850169,13.7659975 L9.6555575,1.57772546 C9.1155121,0.641658207 7.76042042,0.639941597 7.21940227,1.57772546 L0.18974259,13.7659975 C-0.349959493,14.7015498 0.325726686,15.8749955 1.40782021,15.8749955 L15.4669679,15.8749955 Z M15.1643868,14.4687203 L1.71057293,14.4687203 C1.5753327,14.4687203 1.49073245,14.3223221 1.55833826,14.2051349 L8.28521661,2.54517807 C8.35287964,2.42793363 8.52208013,2.42793363 8.58974316,2.54517807 L15.3166215,14.2051062 C15.3842559,14.3222935 15.2996843,14.4687203 15.1643868,14.4687203 Z M9.0434431,10.4843834 C9.22643369,10.4843834 9.38364653,10.3361255 9.39440395,10.1534783 L9.5874081,6.87223608 C9.59928131,6.67027695 9.43872109,6.50001788 9.23647586,6.50001788 L7.63839808,6.50001788 C7.43618146,6.50001788 7.27562123,6.67027695 7.28749445,6.87223608 L7.4804986,10.1534783 C7.49142768,10.3393013 7.64532174,10.4843834 7.83145945,10.4843834 L9.0434431,10.4843834 Z M8.43747988,13.3554703 C9.11705704,13.3554703 9.6679457,12.8045816 9.6679457,12.1250045 C9.6679457,11.4454273 9.11705704,10.8945387 8.43747988,10.8945387 C7.75790272,10.8945387 7.20701407,11.4454273 7.20701407,12.1250045 C7.20701407,12.8045816 7.75790272,13.3554703 8.43747988,13.3554703 Z" id="" fill="#424242" fill-rule="nonzero"></path>
    </g>
</svg>